<?xml version="1.0" standalone="no"?>
<!DOCTYPE svg PUBLIC "-//W3C//DTD SVG 20010904//EN"
 "http://www.w3.org/TR/2001/REC-SVG-20010904/DTD/svg10.dtd">
<svg version="1.0" xmlns="http://www.w3.org/2000/svg"
 width="1023.000000pt" height="1023.000000pt" viewBox="0 0 1023.000000 1023.000000"
 preserveAspectRatio="xMidYMid meet">

<g transform="translate(0.000000,1023.000000) scale(0.100000,-0.100000)"
fill="#000000" stroke="none">
<path d="M0 7920 l0 -70 43 -1 c23 -1 44 -1 47 -1 118 7 182 12 188 16 4 2 26
1 49 -3 22 -5 48 -4 57 1 15 8 1234 18 2256 18 261 0 484 0 495 0 66 1 987 1
1115 0 85 0 196 -1 245 -1 50 1 100 0 113 0 25 -1 162 0 190 0 21 1 478 1 547
0 28 0 127 0 220 0 94 0 231 0 305 -1 74 -1 162 -1 195 0 33 0 74 1 90 1 17 0
203 0 415 0 212 0 399 0 415 0 129 0 324 0 340 1 11 0 128 1 260 1 132 0 310
0 395 0 177 0 670 -1 1603 -4 l647 -2 0 58 0 57 -5115 0 -5115 0 0 -70z"/>
<path d="M0 5416 c0 -1247 3 -2265 7 -2263 17 10 1034 26 1173 19 8 -1 96 1
195 3 99 3 196 5 215 5 19 0 55 0 80 1 25 0 79 0 120 -1 41 -1 84 -1 95 -1 24
2 174 2 195 0 8 0 186 0 395 1 209 0 387 1 395 0 8 0 452 2 985 4 657 3 974 1
983 -6 8 -7 16 -7 25 0 8 7 355 11 1052 12 572 0 1368 2 1769 3 l729 2 14 47
c12 42 17 48 48 54 51 9 66 -7 58 -62 l-6 -44 47 0 c44 0 46 1 46 29 0 17 6
31 16 35 12 5 15 14 9 39 -3 17 -9 54 -12 81 -5 47 -4 48 18 41 35 -11 42 -21
30 -43 -12 -23 -13 -112 -2 -152 4 -14 15 -26 25 -28 15 -3 16 1 10 32 -3 21
-2 36 3 36 6 0 16 18 23 41 11 32 11 45 2 60 -15 23 -16 49 -2 49 6 0 10 -11
10 -24 0 -14 5 -28 11 -32 7 -4 10 -33 9 -73 -4 -97 -8 -91 65 -91 68 0 71 3
55 44 -5 15 -12 49 -14 77 -3 28 -12 74 -20 103 -8 28 -18 72 -21 98 -3 26
-10 50 -16 53 -14 9 -10 98 6 119 21 28 41 14 72 -49 20 -40 35 -57 53 -62 14
-3 31 -10 38 -16 10 -8 14 -5 18 10 5 17 13 21 38 19 18 -2 38 -6 44 -10 18
-11 62 12 62 33 0 24 23 43 44 35 9 -3 16 -1 16 5 0 18 29 12 40 -8 5 -11 7
-26 4 -34 -3 -8 -1 -18 5 -22 18 -10 12 -55 -10 -83 -18 -23 -19 -27 -5 -30 9
-2 14 -8 11 -13 -4 -5 -17 -6 -29 -3 -20 5 -24 1 -29 -33 -4 -21 -7 -50 -7
-65 0 -27 2 -28 46 -28 l47 0 -6 35 c-6 34 -5 35 21 29 15 -3 51 -30 80 -59
47 -49 52 -57 52 -99 l0 -46 69 0 c62 0 70 2 76 21 6 19 12 21 53 15 25 -3 56
-13 68 -21 19 -12 61 -15 208 -15 101 0 186 4 188 8 2 5 33 6 71 2 l67 -5 0
2223 c0 1968 -2 2223 -15 2212 -8 -7 -22 -9 -32 -5 -42 17 -82 22 -93 11 -13
-13 -1298 -18 -1306 -4 -3 4 -13 4 -22 0 -13 -7 -1544 -8 -2437 -2 -154 1
-1767 -1 -1795 -2 -32 -1 -1758 -1 -1995 0 -55 0 -111 0 -125 0 -92 -2 -2021
14 -2085 17 -232 12 -301 19 -312 28 -10 7 -13 -445 -13 -2257z m7907 2077
c23 -15 93 -96 93 -108 0 -3 -26 16 -57 44 -32 27 -69 59 -83 71 l-25 21 25
-7 c14 -4 35 -13 47 -21z m-58 -151 c31 -23 53 -28 114 -23 9 0 26 10 37 21
l21 21 19 -23 c34 -42 58 -129 65 -238 3 -58 10 -109 16 -114 5 -6 9 -40 9
-77 0 -66 -1 -68 -46 -114 -36 -37 -50 -46 -68 -41 -16 4 -24 1 -23 -7 2 -52
-16 -65 -28 -19 -11 45 -52 99 -95 123 -22 12 -40 28 -40 34 0 13 46 57 75 73
19 10 18 11 -8 17 -22 6 -25 10 -16 21 6 8 27 14 45 14 35 0 46 13 18 24 -9 3
-29 6 -46 6 -17 0 -36 6 -42 14 -14 18 -67 29 -85 17 -12 -8 -12 -12 -2 -25 8
-9 22 -16 33 -16 31 0 12 -17 -27 -24 -41 -8 -44 -18 -10 -40 57 -37 7 -50
-63 -16 -22 11 -46 20 -53 20 -7 0 -9 9 -5 26 5 20 1 33 -15 50 -19 21 -21 29
-14 90 4 37 11 75 15 83 5 9 17 35 26 59 14 32 23 42 40 42 38 0 74 18 68 34
-3 9 2 16 13 18 22 5 28 3 72 -30z m-6947 -125 c31 -15 73 -46 93 -69 41 -45
83 -128 92 -181 5 -33 4 -34 -66 -65 -39 -18 -73 -32 -76 -32 -3 0 -5 22 -5
48 0 68 -27 150 -59 183 -57 57 -171 63 -231 12 -67 -56 -88 -138 -97 -378 -5
-159 6 -333 28 -408 6 -22 25 -55 43 -74 27 -30 41 -36 82 -40 61 -5 93 11
116 57 15 29 18 62 18 188 l0 152 -80 0 -80 0 0 60 0 60 230 0 230 0 0 -305 0
-305 -53 0 c-53 0 -54 1 -72 39 l-18 40 -36 -25 c-121 -83 -358 -87 -513 -8
-112 57 -202 184 -233 329 -19 90 -19 250 0 340 41 195 179 350 356 400 36 10
90 14 164 12 97 -2 117 -5 167 -30z m678 -307 l0 -60 53 54 c65 67 117 80 190
48 37 -17 47 -27 62 -66 19 -49 17 -131 -5 -208 l-11 -38 -98 0 c-54 0 -100 3
-104 6 -3 3 1 27 9 52 18 61 18 106 -1 122 -21 18 -49 -9 -71 -69 -15 -39 -19
-90 -22 -338 l-3 -293 -150 0 -149 0 0 414 0 413 98 2 c53 2 117 6 142 11 25
4 48 8 53 9 4 0 7 -26 7 -59z m936 35 c114 -34 188 -107 225 -224 31 -96 31
-280 0 -370 -61 -177 -182 -247 -410 -239 -98 3 -125 8 -171 30 -151 69 -218
207 -207 428 9 183 70 296 190 355 93 45 259 54 373 20z m834 14 c168 -27 268
-123 300 -287 8 -37 11 -106 8 -174 -7 -149 -30 -212 -108 -290 -48 -48 -68
-60 -129 -78 -62 -19 -90 -22 -189 -18 -101 4 -125 8 -179 32 -65 29 -128 87
-157 144 -63 122 -61 375 4 502 69 136 246 202 450 169z m740 -50 l0 -61 42
36 c68 58 123 80 204 81 60 0 76 -4 111 -27 22 -15 50 -43 62 -62 l22 -35 29
32 c16 18 53 46 82 63 46 25 63 29 133 29 101 0 149 -22 182 -85 23 -43 23
-47 23 -402 l0 -359 -147 3 -148 3 -5 338 c-4 286 -7 339 -20 347 -19 12 -24
12 -53 -1 -62 -28 -77 -113 -77 -442 l0 -248 -147 3 -148 3 -3 331 c-2 312 -3
332 -21 348 -17 16 -23 16 -47 4 -16 -7 -37 -29 -48 -48 -20 -33 -21 -56 -26
-335 l-5 -300 -150 0 -150 0 -3 413 -2 412 82 1 c46 1 110 5 143 9 33 4 66 8
73 9 8 1 12 -17 12 -60z m1577 21 c109 -54 168 -163 180 -332 l6 -88 -218 0
-218 0 7 -70 c10 -101 32 -166 71 -208 31 -34 38 -37 88 -37 97 0 147 59 147
174 0 56 2 62 18 56 9 -3 37 -12 61 -18 l43 -12 -5 -53 c-10 -99 -81 -184
-179 -216 -73 -23 -237 -22 -319 4 -162 49 -239 174 -239 385 0 183 72 328
198 402 108 63 246 68 359 13z m613 -28 l0 -57 25 37 c72 106 224 113 275 12
18 -36 17 -141 -2 -204 l-14 -45 -102 -3 c-56 -1 -102 1 -102 6 0 5 7 31 15
58 19 62 19 89 0 108 -22 22 -40 11 -67 -42 -22 -45 -23 -58 -28 -347 l-5
-300 -147 -3 -148 -3 0 414 0 414 98 2 c53 2 117 6 142 10 25 4 48 6 53 4 4
-3 7 -30 7 -61z m1433 -52 c12 0 28 -4 36 -9 19 -12 3 -33 -20 -26 -13 5 -19
2 -19 -9 0 -9 -6 -25 -12 -36 -10 -16 -10 -24 0 -40 14 -24 16 -60 2 -60 -5 0
-10 5 -10 10 0 6 -7 10 -15 10 -8 0 -15 -2 -15 -5 0 -3 7 -22 15 -42 38 -89
-9 -101 -68 -16 -23 34 -26 45 -20 91 5 49 22 68 38 42 4 -6 10 -8 15 -5 4 3
0 23 -11 45 -35 72 -23 100 28 70 19 -11 44 -20 56 -20z m605 -85 c25 -22 60
-40 98 -51 126 -35 221 -54 275 -54 58 0 95 -9 164 -40 107 -47 171 -64 243
-64 l72 1 0 -32 c0 -17 -5 -36 -12 -43 -9 -9 -8 -12 5 -12 24 0 35 -27 27 -70
-4 -24 -3 -43 3 -49 8 -8 1 -11 -21 -11 -38 0 -42 -17 -8 -30 28 -10 43 -30
29 -39 -5 -3 -12 -13 -16 -21 -4 -8 -12 -23 -19 -32 -11 -15 -7 -23 22 -53
l34 -35 -24 -25 c-30 -32 -54 -32 -92 0 -16 14 -34 25 -39 25 -5 0 -2 -11 7
-25 19 -29 5 -34 -20 -6 -9 10 -14 25 -10 35 10 26 -23 19 -42 -9 -9 -14 -25
-25 -35 -25 -38 0 -23 -28 46 -84 35 -28 27 -46 -11 -25 -28 14 -36 9 -70 -47
-11 -17 -14 -14 -36 32 -40 85 -176 185 -228 169 -15 -5 -20 -2 -20 10 0 13
-5 16 -22 10 -13 -3 -33 -9 -45 -12 -13 -3 -23 -11 -23 -17 0 -7 -12 -26 -26
-44 -22 -26 -30 -30 -45 -21 -23 12 -25 61 -4 79 9 7 15 29 15 52 0 22 12 63
27 94 l27 55 -37 35 c-38 37 -40 41 -37 87 1 15 -3 27 -9 27 -6 0 -11 -9 -11
-20 0 -11 -7 -20 -15 -20 -8 0 -22 -11 -30 -24 -9 -13 -25 -26 -37 -29 -16 -5
-19 -11 -15 -28 3 -12 0 -48 -8 -80 -11 -51 -11 -60 2 -71 10 -8 13 -22 9 -41
-4 -21 -2 -28 7 -24 6 3 19 8 27 11 11 5 23 -9 44 -50 l28 -56 -21 -14 c-12
-9 -19 -19 -16 -24 3 -5 1 -18 -5 -29 -7 -14 -7 -28 2 -48 6 -15 12 -37 13
-48 5 -62 17 -135 24 -135 14 0 31 25 31 47 0 12 8 27 18 32 27 15 62 -13 62
-48 0 -35 39 -93 65 -98 100 -17 106 -16 135 12 16 16 27 32 24 36 -9 15 79
51 125 52 36 1 61 -8 116 -40 39 -22 84 -44 101 -47 47 -10 89 -61 144 -173
11 -23 25 -45 31 -48 5 -4 7 -14 4 -24 -3 -11 5 -26 20 -41 22 -21 28 -22 36
-10 8 13 9 13 7 -1 -2 -9 18 -38 45 -64 48 -49 59 -75 32 -75 -21 0 -19 -24 4
-44 16 -15 18 -21 8 -37 -6 -10 -20 -19 -29 -19 -11 0 -18 -7 -18 -18 0 -10
-15 -26 -35 -36 -41 -22 -42 -27 -14 -52 l20 -18 -21 -8 c-17 -6 -19 -11 -10
-28 9 -16 7 -26 -10 -49 -24 -34 -25 -50 -6 -57 17 -6 16 -88 -1 -119 -7 -11
-14 -28 -17 -38 -3 -10 -10 -15 -16 -12 -5 3 -10 1 -10 -4 0 -6 5 -11 10 -11
6 0 10 -19 10 -41 l0 -42 -35 6 c-19 3 -34 3 -34 -1 3 -19 -3 -22 -23 -11 -17
9 -24 9 -33 -4 -14 -19 -48 -13 -84 15 -13 10 -28 18 -32 18 -14 0 -10 -22 8
-42 15 -17 15 -19 0 -36 -10 -10 -17 -24 -17 -31 0 -20 -30 -24 -50 -6 -17 16
-19 16 -30 -5 -11 -20 -13 -21 -36 -5 -19 12 -29 13 -38 6 -7 -6 -22 -10 -32
-9 -29 3 -117 -13 -131 -24 -7 -6 -25 -8 -40 -5 -23 4 -34 -2 -65 -35 -25 -27
-42 -38 -53 -34 -9 3 -25 1 -35 -4 -13 -7 -21 -7 -25 0 -13 21 -64 11 -81 -16
-14 -20 -24 -24 -53 -22 -32 3 -36 6 -36 29 0 18 -10 35 -28 49 -16 13 -33 34
-38 48 -9 24 -10 24 -29 7 -18 -16 -20 -16 -26 -1 -3 9 -15 16 -26 16 -23 0
-68 38 -68 58 0 7 -13 12 -31 12 -28 0 -31 -2 -25 -25 5 -18 2 -25 -8 -25 -19
0 -33 19 -40 55 -5 28 -2 32 68 76 63 41 120 65 226 98 14 4 47 7 73 6 39 -2
47 0 47 16 0 20 55 63 69 55 5 -3 20 3 34 14 43 34 91 21 102 -29 3 -16 12
-35 20 -41 7 -6 16 -21 19 -34 3 -13 13 -27 22 -30 22 -8 31 1 16 16 -7 7 -12
19 -12 28 0 9 -9 33 -20 55 -27 54 -26 61 20 93 21 15 39 33 40 39 0 11 -11
16 -72 28 -10 1 -22 -3 -28 -10 -8 -10 -17 -10 -47 0 -49 17 -60 48 -31 85 19
22 29 27 56 22 19 -3 32 0 32 6 0 6 -10 12 -22 14 -20 3 -23 9 -24 50 -2 55 6
70 37 72 35 2 37 45 4 76 -14 13 -25 21 -25 17 0 -4 -12 -2 -27 4 -18 7 -28 6
-33 -1 -4 -6 -30 -13 -58 -14 -28 -1 -58 -8 -66 -15 -13 -11 -20 -11 -41 3
-13 9 -28 16 -32 16 -4 0 -2 -4 5 -9 11 -7 10 -9 -3 -14 -9 -4 -18 -1 -21 6
-3 8 -16 12 -34 9 -21 -3 -32 1 -42 17 -15 25 -25 27 -30 5 -3 -13 -6 -12 -24
5 -14 13 -29 18 -44 14 -20 -5 -21 -4 -10 17 10 18 9 25 -5 39 -9 9 -15 12
-13 6 2 -6 -1 -12 -5 -15 -5 -3 -15 13 -22 34 -15 43 -6 76 20 76 12 0 15 15
15 65 0 71 -13 102 -62 143 -17 14 -24 29 -21 41 5 18 -1 20 -74 21 -143 2
-146 1 -215 -44 -28 -18 -28 -18 -29 3 -2 37 -4 41 -14 39 -5 -2 -9 -7 -7 -11
1 -5 -5 -21 -15 -37 -13 -23 -14 -32 -4 -44 9 -11 10 -20 1 -36 -7 -13 -9 -39
-5 -63 4 -30 3 -38 -4 -27 -9 13 -13 12 -28 -5 -10 -11 -17 -28 -15 -37 2 -9
-2 -26 -7 -37 -8 -13 -8 -22 -1 -26 6 -4 8 -11 5 -16 -8 -13 -30 10 -38 40 -3
13 -1 33 4 43 7 14 7 24 -2 34 -9 11 -9 14 1 14 7 0 10 7 6 16 -3 9 0 28 8 42
8 15 26 61 41 102 32 87 41 100 66 100 25 0 24 16 -1 23 -25 6 -25 23 -1 79
25 60 43 73 65 49 16 -18 16 -20 -1 -32 -28 -21 -46 -68 -33 -84 6 -8 10 -19
9 -27 -3 -25 1 -38 12 -38 21 0 99 71 140 126 22 30 63 73 92 95 63 50 79 97
49 139 -10 14 -26 48 -36 75 -23 61 -22 60 -38 47 -7 -5 -33 -12 -58 -14 -25
-3 -53 -8 -62 -12 -31 -14 -21 20 15 48 33 26 41 33 81 78 27 30 32 74 14 121
-8 20 -7 31 2 42 10 12 10 19 2 27 -19 19 -14 63 8 83 11 10 20 23 20 30 0 14
76 77 105 87 11 3 44 6 72 7 47 1 57 -3 91 -34z m1343 -28 c-6 -6 -11 -21 -11
-34 0 -26 -15 -31 -23 -8 -5 10 -15 5 -41 -21 -20 -20 -36 -40 -36 -44 0 -14
-42 -40 -53 -33 -5 3 1 14 14 24 28 21 20 36 -10 18 -30 -20 -36 -4 -10 30 23
31 53 43 43 17 -3 -8 -1 -17 4 -20 6 -3 17 12 26 34 12 30 21 40 38 40 13 0
30 4 38 9 18 12 35 2 21 -12z m-311 -197 c0 -5 -4 -10 -10 -10 -5 0 -10 5 -10
10 0 6 5 10 10 10 6 0 10 -4 10 -10z m70 1 c0 -16 -31 -41 -51 -41 -28 0 -23
17 9 33 33 18 42 20 42 8z m130 -32 c0 -6 -4 -7 -10 -4 -5 3 -10 11 -10 16 0
6 5 7 10 4 6 -3 10 -11 10 -16z m-78 -31 c-12 -12 -35 -1 -27 12 3 5 13 6 21
3 10 -4 12 -9 6 -15z m48 -10 c0 -7 3 -23 6 -34 5 -18 2 -22 -18 -21 -12 0
-27 -1 -33 -2 -26 -8 -76 0 -73 11 7 19 65 30 89 17 20 -10 21 -9 17 15 -3 14
-1 26 3 26 5 0 9 -6 9 -12z m88 -25 c-5 -26 -38 -29 -38 -4 0 15 6 21 21 21
14 0 19 -5 17 -17z m-1937 -26 c48 -41 66 -86 60 -147 -5 -50 -8 -55 -32 -58
-15 -2 -32 5 -42 16 -16 17 -16 21 -1 50 8 18 20 32 25 32 22 0 6 31 -31 60
-41 32 -50 54 -27 63 19 8 20 8 48 -16z m1780 -538 c26 -8 41 -20 49 -40 20
-48 10 -64 -40 -67 -37 -2 -50 2 -72 23 -16 14 -28 29 -29 33 -6 58 -5 62 25
62 16 0 46 -5 67 -11z m-6418 -159 c101 -38 164 -112 186 -218 20 -96 19 -97
-53 -110 -97 -18 -92 -22 -91 61 0 131 -60 187 -213 195 -135 7 -212 -37 -212
-123 0 -72 62 -126 212 -182 193 -72 326 -167 376 -266 48 -96 51 -219 6 -312
-44 -94 -153 -172 -272 -195 -93 -19 -272 -8 -345 20 -132 50 -194 135 -204
277 -5 72 -4 82 13 90 22 12 144 36 150 30 2 -2 -1 -30 -7 -61 -16 -91 2 -166
53 -213 80 -75 263 -80 334 -9 86 86 38 194 -119 266 -220 101 -242 114 -303
174 -77 78 -104 143 -104 255 0 100 20 158 77 221 48 53 138 104 213 120 76
16 237 5 303 -20z m1587 -555 l0 -585 -155 0 -155 0 0 575 0 575 73 1 c61 1
205 12 230 17 4 1 7 -261 7 -583z m4740 273 c0 -5 -7 -3 -15 6 -8 8 -15 18
-15 22 0 3 7 1 15 -6 8 -7 15 -17 15 -22z m-5369 -7 c53 -16 100 -51 123 -91
20 -33 21 -55 26 -343 4 -259 7 -309 20 -317 8 -6 20 -8 25 -6 50 17 51 17 63
-21 6 -20 9 -39 7 -43 -11 -17 -135 -42 -211 -43 -93 0 -161 25 -184 68 l-14
25 -30 -29 c-58 -54 -92 -66 -196 -66 -83 0 -102 3 -145 26 -30 15 -62 42 -80
68 -26 37 -30 53 -34 123 -7 165 54 232 281 313 142 50 200 113 178 195 -16
58 -50 80 -124 80 -112 0 -163 -61 -137 -165 7 -26 10 -50 7 -52 -3 -3 -36 0
-75 7 -69 11 -71 12 -77 46 -21 111 46 197 181 231 61 15 342 11 396 -6z
m1371 -10 c113 -44 192 -144 218 -279 19 -93 8 -271 -20 -345 -64 -169 -205
-247 -424 -234 -111 6 -182 27 -237 70 -105 80 -140 163 -147 347 -6 187 26
291 117 373 84 75 162 98 321 93 88 -2 128 -8 172 -25z m668 -42 l0 -72 49 46
c69 65 123 89 207 95 113 7 180 -25 215 -102 17 -37 19 -72 19 -403 l0 -363
-155 0 -155 0 0 329 c0 190 -4 341 -10 355 -7 20 -17 26 -38 26 -41 0 -75 -31
-103 -92 -23 -51 -24 -63 -27 -335 l-3 -283 -155 0 -154 0 0 424 0 423 128 10
c70 5 139 10 155 11 l27 2 0 -71z m1699 4 c17 -21 30 -44 30 -53 -1 -13 -2
-12 -6 1 -4 15 -31 16 -73 2 -13 -4 -12 -7 3 -18 10 -7 18 -22 16 -32 -4 -33
15 -61 66 -96 75 -51 69 -84 -18 -92 -30 -4 -31 -14 -3 -24 36 -14 33 -29 -9
-37 -46 -8 -44 -21 5 -29 25 -4 40 -12 40 -21 0 -8 -4 -14 -10 -14 -5 0 -23
-13 -40 -30 -34 -34 -48 -36 -76 -16 -18 14 -18 15 -1 22 10 4 23 18 28 32 11
29 -5 45 -51 51 -5 0 -10 9 -10 19 0 10 -15 23 -40 34 -22 9 -43 24 -46 32 -7
18 46 76 70 76 9 0 16 5 16 10 0 17 -27 22 -49 10 -29 -15 -37 7 -18 53 11 26
23 37 46 42 24 5 31 12 31 31 0 14 7 27 15 30 8 4 15 17 15 30 0 37 33 30 69
-13z m-85 2 c-7 -16 -44 -21 -44 -6 0 8 16 16 42 20 4 0 5 -6 2 -14z m851
-165 c3 -11 10 -20 14 -20 5 0 11 -19 15 -42 4 -24 10 -54 13 -67 4 -16 2 -22
-5 -17 -16 10 -42 66 -42 91 0 12 -3 25 -7 29 -10 9 -11 46 -2 46 4 0 11 -9
14 -20z m-300 -120 c-18 -40 -46 -66 -59 -53 -13 14 -5 40 25 76 41 50 61 36
34 -23z m-325 -19 c0 -5 14 -14 30 -21 17 -7 30 -15 30 -19 0 -4 21 -8 46 -9
25 -1 50 -4 55 -8 18 -11 -2 -23 -29 -19 -15 3 -40 7 -57 9 -16 2 -33 5 -36 5
-3 1 -23 17 -45 36 -35 31 -37 35 -16 35 12 0 22 -4 22 -9z m238 -58 c2 -8 -6
-13 -22 -13 -26 0 -40 12 -29 24 11 11 46 2 51 -11z m1602 -334 c0 -6 -4 -7
-10 -4 -5 3 -10 11 -10 16 0 6 5 7 10 4 6 -3 10 -11 10 -16z m-216 -193 c27
-14 62 -26 78 -26 31 0 36 -11 13 -30 -13 -10 -25 -10 -66 4 -66 21 -79 20
-79 -3 0 -12 -11 -21 -32 -28 -34 -10 -35 -12 -23 -50 5 -17 2 -23 -10 -23 -9
0 -23 -6 -31 -14 -7 -8 -19 -16 -26 -18 -10 -4 -10 -8 1 -21 7 -10 10 -17 5
-18 -5 -1 -29 -3 -54 -7 -25 -3 -60 -5 -77 -5 -37 -1 -41 -11 -17 -38 15 -17
15 -20 0 -44 -17 -25 -50 -33 -61 -15 -4 7 -14 5 -28 -5 -12 -8 -30 -15 -40
-15 -16 0 -18 -5 -13 -27 15 -58 12 -68 -14 -68 -14 0 -36 -10 -48 -21 -19
-18 -22 -28 -17 -57 6 -28 3 -39 -15 -57 l-23 -23 -17 23 c-13 18 -23 21 -47
16 -26 -6 -34 -3 -51 20 -19 27 -20 27 -26 6 -4 -12 -14 -22 -21 -22 -8 0 -18
-7 -23 -15 -4 -9 -15 -13 -24 -10 -23 9 -78 90 -78 114 0 12 -6 21 -15 21 -12
0 -14 -7 -9 -27 4 -16 10 -32 14 -38 13 -18 19 -82 8 -93 -8 -8 -19 -7 -38 3
-31 16 -42 37 -33 60 3 9 -1 23 -9 33 -9 9 -19 42 -22 72 -4 30 -12 60 -17 66
-16 19 1 92 29 119 22 22 36 30 45 23 8 -7 71 42 83 65 8 15 21 27 29 27 9 0
23 4 33 9 9 5 49 19 87 31 39 12 88 29 110 39 55 25 107 31 193 22 50 -5 79
-3 90 5 24 16 88 24 100 12 6 -6 16 -6 28 0 11 6 27 13 37 16 9 3 17 15 17 26
0 18 5 20 28 16 15 -2 49 -16 76 -30z m-1329 -6 c3 -5 2 -10 -4 -10 -5 0 -13
5 -16 10 -3 6 -2 10 4 10 5 0 13 -4 16 -10z m168 -60 c9 0 17 -4 17 -10 0 -5
-25 -10 -55 -10 -44 0 -55 3 -55 16 0 14 7 15 38 10 20 -3 45 -6 55 -6z m107
-226 c0 -8 -4 -12 -10 -9 -5 3 -10 10 -10 16 0 5 5 9 10 9 6 0 10 -7 10 -16z
m1494 -306 c30 -46 41 -112 27 -165 -7 -26 -15 -61 -18 -78 -3 -16 -10 -35
-15 -42 -5 -6 -10 -36 -11 -66 -1 -31 -5 -58 -8 -62 -4 -3 -18 -1 -31 4 -21 8
-25 15 -21 36 4 21 -3 34 -35 65 -33 31 -38 41 -28 49 7 6 20 10 27 8 8 -2 11
-2 8 0 -8 5 1 52 12 59 5 3 9 17 9 32 0 15 9 54 20 86 11 33 18 62 15 64 -6 6
15 32 26 32 5 0 15 -10 23 -22z m-1420 -23 c3 -8 1 -15 -3 -15 -5 0 -11 7 -15
15 -3 8 -1 15 3 15 5 0 11 -7 15 -15z m198 -12 c6 -25 -1 -43 -17 -43 -17 0
-46 40 -39 52 10 15 52 8 56 -9z m341 -72 c3 -16 9 -40 13 -55 9 -38 -8 -32
-35 12 l-22 37 6 -38 c7 -41 -1 -77 -16 -77 -5 0 -9 6 -9 14 0 8 -11 28 -24
43 -22 25 -25 26 -31 11 -15 -38 -40 -5 -29 38 7 29 20 31 29 4 3 -11 12 -20
20 -20 8 0 17 9 20 20 3 11 11 20 16 20 5 0 9 8 9 18 0 10 3 22 7 25 11 11 40
-22 46 -52z m-188 -1 c0 -7 -6 -15 -12 -17 -8 -3 -13 4 -13 17 0 13 5 20 13
18 6 -3 12 -11 12 -18z m265 -1 c0 -6 -4 -7 -10 -4 -5 3 -10 11 -10 16 0 6 5
7 10 4 6 -3 10 -11 10 -16z m-280 -50 c0 -5 -4 -9 -10 -9 -5 0 -10 7 -10 16 0
8 5 12 10 9 6 -3 10 -10 10 -16z m-237 -209 c14 0 17 -9 17 -50 0 -56 -7 -61
-37 -27 -45 49 -56 93 -20 83 12 -3 30 -6 40 -6z m-386 -135 c-7 -47 -40 -129
-56 -140 -19 -11 -20 13 -1 33 14 15 20 35 20 67 0 44 16 85 34 85 5 0 6 -20
3 -45z m263 -24 c0 -12 -20 -25 -27 -18 -7 7 6 27 18 27 5 0 9 -4 9 -9z"/>
<path d="M7902 7219 c2 -7 10 -15 17 -17 8 -3 12 1 9 9 -2 7 -10 15 -17 17 -8
3 -12 -1 -9 -9z"/>
<path d="M7772 7158 c7 -20 55 -51 68 -43 7 4 0 15 -21 31 -36 26 -53 31 -47
12z"/>
<path d="M7894 7115 c24 -18 39 -20 34 -2 -3 6 -15 13 -29 15 -23 2 -23 2 -5
-13z"/>
<path d="M2321 6871 c-28 -28 -41 -80 -54 -214 -8 -87 -8 -149 0 -240 13 -140
29 -193 66 -221 24 -18 27 -18 51 -2 49 31 61 103 61 351 -1 185 -4 227 -18
265 -31 79 -67 100 -106 61z"/>
<path d="M3220 6870 c-42 -42 -55 -120 -55 -335 0 -215 13 -293 55 -335 41
-41 79 -13 107 77 27 87 26 443 -1 526 -27 81 -66 107 -106 67z"/>
<path d="M5466 6858 c-20 -32 -33 -90 -41 -180 l-7 -78 87 0 88 0 -5 93 c-5
90 -26 163 -51 179 -23 15 -57 8 -71 -14z"/>
<path d="M8234 6349 c-21 -34 -5 -124 18 -101 17 17 20 88 4 101 -11 9 -16 9
-22 0z"/>
<path d="M8165 5880 c3 -5 10 -10 16 -10 5 0 9 5 9 10 0 6 -7 10 -16 10 -8 0
-12 -4 -9 -10z"/>
<path d="M8870 5400 c0 -5 5 -10 10 -10 6 0 10 5 10 10 0 6 -4 10 -10 10 -5 0
-10 -4 -10 -10z"/>
<path d="M8930 5395 c0 -14 37 -41 46 -33 6 6 -26 48 -37 48 -5 0 -9 -7 -9
-15z"/>
<path d="M8810 5387 c0 -17 117 -80 131 -71 18 11 -30 62 -63 66 -18 3 -41 8
-50 13 -13 5 -18 3 -18 -8z"/>
<path d="M8780 5020 c0 -5 7 -10 15 -10 8 0 15 5 15 10 0 6 -7 10 -15 10 -8 0
-15 -4 -15 -10z"/>
<path d="M8890 4805 c0 -14 31 -36 70 -50 22 -8 40 -10 40 -5 0 8 -33 26 -102
58 -5 2 -8 1 -8 -3z"/>
<path d="M3760 5029 c-72 -58 -90 -95 -90 -184 0 -133 36 -190 95 -151 47 31
56 71 53 233 l-3 147 -55 -45z"/>
<path d="M5137 5358 c-75 -57 -93 -514 -27 -665 38 -87 105 -61 135 52 32 122
30 422 -5 546 -18 66 -64 95 -103 67z"/>
<path d="M8580 4212 c0 -14 35 -42 53 -42 22 0 21 13 -1 33 -20 18 -52 23 -52
9z"/>
<path d="M9180 3601 c0 -5 5 -13 10 -16 6 -3 10 -2 10 4 0 5 -4 13 -10 16 -5
3 -10 2 -10 -4z"/>
<path d="M9030 3486 c0 -14 5 -28 10 -31 6 -3 10 -20 10 -36 0 -18 4 -28 10
-24 13 8 13 41 -2 82 -14 39 -28 43 -28 9z"/>
<path d="M0 2871 l0 -131 5115 0 5115 0 0 89 0 88 -97 7 c-87 5 -560 8 -913 5
-69 0 -147 0 -175 0 -92 3 -239 4 -315 2 -41 -1 -475 1 -965 4 -489 2 -1210 6
-1602 7 -391 2 -714 6 -718 10 -4 4 -17 3 -29 -1 -11 -5 -86 -7 -166 -5 -80 2
-165 3 -190 2 -47 -1 -563 0 -660 1 -30 1 -192 0 -360 0 -238 -1 -2824 10
-2890 12 -8 0 -87 0 -175 0 -316 0 -947 23 -967 35 -4 3 -8 -54 -8 -125z"/>
</g>
</svg>
